<svg width="186" height="65" viewBox="0 0 186 65" fill="none" xmlns="http://www.w3.org/2000/svg">
<g clip-path="url(#clip0_621_1309)">
<path d="M43.6184 41.203L43.4302 33.0754L48.9225 24.9764L46.0708 16.6723L46.6183 14.8554L47.1316 16.359L49.105 17.2988L50.2684 19.0017L50.8502 17.5665L53.8387 16.7235L48.3464 10.3901C48.3464 10.3901 48.1639 10.3331 47.8731 10.2306C47.7134 6.42597 45.3123 2.78082 41.8504 1.24302C30.1531 -4.03105 20.2979 8.59028 25.5334 19.3777L25.9783 19.1897C24.9631 16.0571 25.1798 12.6968 26.4231 9.91165C28.5562 4.54075 35.0522 2.0461 39.706 5.35521C40.9208 6.18676 41.7478 7.38283 41.993 8.60167L37.7099 9.81483L39.6205 10.6578L36.4323 20.8642L41.417 20.5794L36.1358 22.0773L35.1491 22.3507L23.1552 25.7396L16.9158 24.3954L20.6572 30.4213L13.7733 51.979L6.53022 54.0237L0 61.5987H51.7741L46.0252 57.7884L51.7741 52.6624V46.1353L56.5705 37.5464L43.6241 41.203H43.6184ZM33.267 43.3388L19.277 49.9286L25.9041 39.2779L22.4366 38.7425L37.4989 34.4709L40.1395 42.2396L33.2727 43.3388H33.267Z" fill="#26003C"/>
<path d="M72.2373 44.4208V13.0725H82.3206V44.4208H72.2373Z" fill="#26003C"/>
<path d="M112.514 14.0521C113.837 14.7071 114.886 15.6241 115.662 16.8088C116.437 17.9935 116.825 19.3148 116.825 20.7729C116.825 24.6288 115.074 27.0608 111.578 28.0632V28.2454C115.565 29.1567 117.555 31.771 117.555 36.0825C117.555 37.7228 117.15 39.1752 116.346 40.4339C115.542 41.6926 114.436 42.6723 113.038 43.3728C111.641 44.0734 110.101 44.4208 108.43 44.4208H87.2596V13.0725H108.156C109.736 13.0725 111.19 13.3972 112.514 14.0521ZM97.343 25.2838H104.278C104.945 25.2838 105.504 25.0502 105.943 24.5775C106.383 24.1048 106.605 23.5238 106.605 22.8233V22.3676C106.605 21.7013 106.377 21.1317 105.921 20.659C105.464 20.1862 104.917 19.9527 104.278 19.9527H97.343V25.2838ZM97.343 37.1305H105.008C105.675 37.1305 106.234 36.897 106.673 36.4243C107.113 35.9515 107.335 35.3706 107.335 34.67V34.2144C107.335 33.5138 107.113 32.9329 106.673 32.4602C106.234 31.9874 105.675 31.7539 105.008 31.7539H97.343V37.1305Z" fill="#26003C"/>
<path d="M120.903 13.0725H148.051V20.5906H130.986V24.9192H145.587V32.1184H130.986V36.9027H148.37V44.4208H120.903V13.0725Z" fill="#26003C"/>
<path d="M184.745 44.4208H172.518L166.723 34.67H166.541L160.746 44.4208H149.431L160.655 27.8354L150.526 13.0725H162.708L167.453 21.0918H167.636L172.426 13.0725H183.696L173.521 27.8809L184.745 44.4208Z" fill="#26003C"/>
<path d="M75.7962 61.7751C75.3057 61.7751 74.8266 61.7068 74.359 61.5758C73.8913 61.4448 73.4578 61.2341 73.0757 60.955C72.6936 60.6759 72.3685 60.3057 72.1233 59.8557C71.8723 59.4058 71.7183 58.8704 71.6613 58.2439H73.3038C73.3837 58.7508 73.5491 59.1552 73.8057 59.4457C74.0624 59.7361 74.3647 59.9469 74.724 60.0779C75.0776 60.2032 75.4483 60.2658 75.8304 60.2658C76.2125 60.2658 76.5718 60.2032 76.8855 60.0836C77.1992 59.9639 77.4501 59.7817 77.6326 59.5482C77.8151 59.3147 77.9121 59.0299 77.9121 58.6995C77.9121 58.3692 77.8208 58.0901 77.6383 57.8395C77.4558 57.5889 77.0908 57.418 76.5319 57.3212L74.7126 56.9852C73.897 56.8314 73.2582 56.4954 72.7792 55.9885C72.3058 55.4816 72.0662 54.8778 72.0662 54.183C72.0662 53.5451 72.2316 53.004 72.5567 52.554C72.8818 52.1041 73.321 51.7624 73.8628 51.5174C74.4046 51.2725 75.0034 51.1586 75.6593 51.1586C76.3152 51.1586 76.9539 51.2782 77.4957 51.5118C78.0318 51.7453 78.4767 52.0984 78.8189 52.5768C79.1611 53.0496 79.3664 53.659 79.4348 54.4051H77.7581C77.6896 53.9665 77.5528 53.6191 77.3532 53.3628C77.1535 53.1065 76.9083 52.9299 76.6174 52.8217C76.3266 52.7135 76.0186 52.6623 75.6821 52.6623C75.3798 52.6623 75.0719 52.7135 74.7639 52.8103C74.4559 52.9072 74.205 53.0666 74.0053 53.2774C73.8114 53.4938 73.7145 53.7786 73.7145 54.1431C73.7145 54.4677 73.8342 54.7468 74.0681 54.9803C74.3019 55.2139 74.6669 55.379 75.1574 55.4645L76.8456 55.7891C77.7068 55.9429 78.3797 56.2561 78.8588 56.7118C79.3379 57.1731 79.5774 57.8224 79.5774 58.6597C79.5774 59.1666 79.4691 59.6165 79.2523 60.0095C79.0356 60.4025 78.7447 60.7271 78.3797 60.9834C78.0147 61.2454 77.6041 61.4391 77.1592 61.5758C76.7144 61.7125 76.2581 61.7808 75.7848 61.7808L75.7962 61.7751Z" fill="#26003C"/>
<path d="M83.5583 61.5986C83.0906 61.5986 82.6914 61.5416 82.3663 61.4277C82.0412 61.3138 81.796 61.1031 81.6306 60.7898C81.4652 60.4766 81.3796 60.0209 81.3796 59.4286V55.8062H80.1306V54.3254H81.3796V52.4174H83.1419V54.3254H85.0525V55.8062H83.1419V59.1951C83.1419 59.4571 83.1704 59.6564 83.2218 59.7817C83.2731 59.907 83.3701 59.9924 83.5069 60.038C83.6438 60.0836 83.8434 60.1063 84.1115 60.1063H84.9784V61.6043H83.5526L83.5583 61.5986Z" fill="#26003C"/>
<path d="M88.138 61.7751C87.5791 61.7751 87.1057 61.6726 86.7122 61.4733C86.3187 61.2739 86.0221 61.0062 85.8168 60.6759C85.6115 60.3455 85.5088 59.981 85.5088 59.588C85.5088 58.8248 85.7825 58.2325 86.3415 57.811C86.8947 57.3895 87.619 57.1788 88.5201 57.1788C88.9307 57.1788 89.2958 57.213 89.6151 57.2756C89.9345 57.3383 90.1912 57.4009 90.3851 57.4579V57.1219C90.3851 56.5865 90.2368 56.1878 89.9345 55.9315C89.6322 55.6752 89.2444 55.5499 88.7653 55.5499C88.4117 55.5499 88.0981 55.6182 87.8243 55.7606C87.5506 55.903 87.3738 56.1593 87.2939 56.5295H85.6172C85.6742 55.9998 85.851 55.5613 86.1476 55.2082C86.4441 54.855 86.8148 54.5873 87.2711 54.4108C87.7274 54.2285 88.2235 54.1374 88.7653 54.1374C89.8319 54.1374 90.6588 54.3994 91.252 54.9234C91.8451 55.4474 92.1417 56.1764 92.1417 57.1162V58.8932C92.1417 59.2634 92.1645 59.5368 92.2101 59.7076C92.2557 59.8785 92.3299 59.9867 92.4325 60.0323C92.5352 60.0778 92.6721 60.1006 92.8375 60.1006H92.9116V61.5986H92.5124C92.0105 61.5986 91.5942 61.5302 91.2577 61.3878C90.9212 61.2454 90.6816 60.9664 90.5448 60.5449C90.2995 60.898 89.9744 61.1885 89.5752 61.422C89.1703 61.6555 88.6969 61.7751 88.138 61.7751ZM88.5201 60.4139C88.8623 60.4139 89.1589 60.3341 89.3984 60.1747C89.6436 60.0152 89.8433 59.7988 89.9915 59.5311C90.1455 59.2634 90.2425 58.9672 90.2938 58.6426C90.0885 58.5856 89.8433 58.523 89.5581 58.466C89.2729 58.409 88.9821 58.3806 88.6912 58.3806C88.2521 58.3806 87.9042 58.4774 87.6532 58.671C87.4023 58.8647 87.2768 59.1324 87.2768 59.4627C87.2768 59.7361 87.3852 59.9639 87.6076 60.1462C87.8243 60.3284 88.1266 60.4196 88.5087 60.4196L88.5201 60.4139Z" fill="#26003C"/>
<path d="M92.809 55.8062V54.3253H97.0408V55.8062H92.809ZM93.8355 61.5985V53.3115C93.8355 52.6679 93.9097 52.1781 94.0637 51.8535C94.2177 51.5288 94.4629 51.3067 94.8051 51.1985C95.1473 51.0903 95.6036 51.039 96.1682 51.039H97.0351V52.5369H96.5047C96.134 52.5369 95.8887 52.5939 95.7689 52.7078C95.6492 52.8217 95.5921 53.0552 95.5921 53.4197V61.6042H93.8298L93.8355 61.5985Z" fill="#26003C"/>
<path d="M98.689 61.5985V55.8062H97.6624V54.3253H98.689V53.3115C98.689 52.6679 98.7631 52.1781 98.9171 51.8535C99.0711 51.5288 99.3164 51.3067 99.6586 51.1985C100.001 51.0903 100.457 51.039 101.022 51.039H101.889V52.5369H101.358C100.987 52.5369 100.742 52.5939 100.622 52.7078C100.503 52.8217 100.446 53.0552 100.446 53.4197V54.331H104.66V61.6042H102.898V55.8119H100.446V61.6042H98.6833L98.689 61.5985ZM102.67 53.1805V51.113H104.917V53.1805H102.67Z" fill="#26003C"/>
<path d="M105.978 61.5986V54.3254H107.74V55.4531C107.985 55.0544 108.316 54.7354 108.732 54.5019C109.149 54.2684 109.628 54.1488 110.164 54.1488C111.065 54.1488 111.767 54.4279 112.263 54.9917C112.765 55.5556 113.01 56.3758 113.01 57.4636V61.5986H111.248V57.6402C111.248 56.9852 111.111 56.4897 110.843 56.1536C110.575 55.8176 110.164 55.6467 109.616 55.6467C109.069 55.6467 108.63 55.8347 108.27 56.2163C107.911 56.5979 107.734 57.139 107.734 57.8452V61.5986H105.972H105.978Z" fill="#26003C"/>
<path d="M118.091 64.9988C117.464 64.9988 116.871 64.8963 116.312 64.6913C115.753 64.4862 115.285 64.1673 114.903 63.7401C114.521 63.3072 114.287 62.7605 114.196 62.0998H115.941C116.05 62.5213 116.295 62.8573 116.677 63.1022C117.059 63.3528 117.521 63.4781 118.057 63.4781C118.439 63.4781 118.793 63.3984 119.124 63.2389C119.449 63.0794 119.711 62.8288 119.905 62.4985C120.093 62.1681 120.19 61.7467 120.19 61.2398V60.3C120.042 60.5449 119.854 60.767 119.62 60.9721C119.386 61.1771 119.101 61.3423 118.77 61.4733C118.439 61.5986 118.057 61.6612 117.624 61.6612C116.939 61.6612 116.318 61.4961 115.765 61.1714C115.211 60.8411 114.772 60.3968 114.453 59.8216C114.128 59.252 113.968 58.6084 113.968 57.8908C113.968 57.1731 114.128 56.5523 114.453 55.9828C114.778 55.4132 115.211 54.969 115.765 54.6386C116.318 54.314 116.939 54.1488 117.635 54.1488C118.211 54.1488 118.719 54.2684 119.164 54.5076C119.603 54.7468 119.945 55.0487 120.19 55.4075V54.3197H121.953V61.1543C121.953 61.9859 121.781 62.6864 121.434 63.2617C121.086 63.8312 120.618 64.2641 120.036 64.5603C119.455 64.8564 118.804 64.9988 118.091 64.9988ZM117.972 60.1291C118.405 60.1291 118.782 60.0323 119.112 59.8387C119.437 59.645 119.7 59.3773 119.894 59.0413C120.082 58.7052 120.179 58.3236 120.179 57.9022C120.179 57.4807 120.082 57.0934 119.894 56.7574C119.7 56.427 119.443 56.165 119.112 55.9714C118.782 55.7834 118.405 55.6866 117.972 55.6866C117.538 55.6866 117.156 55.7834 116.825 55.9714C116.495 56.1593 116.232 56.4213 116.044 56.746C115.856 57.0763 115.765 57.4522 115.765 57.8851C115.765 58.3179 115.856 58.6995 116.044 59.0356C116.232 59.3716 116.489 59.6393 116.825 59.833C117.156 60.0266 117.538 60.1234 117.972 60.1234V60.1291Z" fill="#26003C"/>
<path d="M131.671 61.7751C131.18 61.7751 130.701 61.7068 130.234 61.5758C129.766 61.4448 129.338 61.2341 128.95 60.955C128.563 60.6702 128.249 60.3057 127.998 59.8557C127.747 59.4058 127.593 58.8704 127.536 58.2439H129.179C129.258 58.7508 129.424 59.1552 129.68 59.4457C129.937 59.7361 130.239 59.9469 130.599 60.0779C130.958 60.2032 131.329 60.2658 131.705 60.2658C132.081 60.2658 132.447 60.2032 132.766 60.0836C133.08 59.9639 133.331 59.7817 133.513 59.5482C133.701 59.3147 133.792 59.0299 133.792 58.6995C133.792 58.3692 133.701 58.0901 133.519 57.8395C133.336 57.5889 132.966 57.418 132.407 57.3212L130.587 56.9852C129.777 56.8314 129.133 56.4954 128.66 55.9885C128.186 55.4816 127.947 54.8778 127.947 54.183C127.947 53.5451 128.112 53.004 128.437 52.554C128.762 52.1041 129.201 51.7624 129.743 51.5174C130.285 51.2782 130.884 51.1586 131.54 51.1586C132.196 51.1586 132.84 51.2782 133.376 51.5118C133.918 51.7453 134.357 52.0984 134.699 52.5768C135.041 53.0496 135.247 53.659 135.315 54.4051H133.638C133.57 53.9665 133.433 53.6191 133.234 53.3628C133.034 53.1065 132.789 52.9299 132.498 52.8217C132.207 52.7135 131.899 52.6623 131.568 52.6623C131.266 52.6623 130.958 52.7135 130.65 52.8103C130.342 52.9072 130.091 53.0666 129.891 53.2774C129.698 53.4938 129.595 53.7786 129.595 54.1431C129.595 54.4677 129.715 54.7468 129.948 54.9803C130.182 55.2139 130.547 55.379 131.032 55.4645L132.72 55.7891C133.581 55.9429 134.254 56.2561 134.734 56.7118C135.213 57.1731 135.452 57.8224 135.452 58.6597C135.452 59.1666 135.344 59.6165 135.127 60.0095C134.91 60.4025 134.619 60.7271 134.254 60.9834C133.889 61.2454 133.479 61.4391 133.034 61.5758C132.589 61.7125 132.133 61.7808 131.659 61.7808L131.671 61.7751Z" fill="#26003C"/>
<path d="M140.146 61.7751C139.422 61.7751 138.766 61.6157 138.184 61.2967C137.602 60.9778 137.14 60.5335 136.798 59.9526C136.456 59.3773 136.285 58.7109 136.285 57.9591C136.285 57.2073 136.456 56.5295 136.798 55.96C137.14 55.3904 137.608 54.9405 138.195 54.6272C138.783 54.3083 139.433 54.1488 140.146 54.1488C140.859 54.1488 141.537 54.3083 142.114 54.6272C142.69 54.9462 143.151 55.3904 143.494 55.96C143.836 56.5295 144.007 57.2016 144.007 57.9591C144.007 58.7166 143.836 59.3773 143.494 59.9526C143.151 60.5278 142.69 60.9778 142.108 61.2967C141.526 61.6157 140.87 61.7751 140.146 61.7751ZM140.146 60.2487C140.517 60.2487 140.859 60.1633 141.167 59.9924C141.475 59.8216 141.72 59.5653 141.908 59.2292C142.096 58.8932 142.188 58.4717 142.188 57.9591C142.188 57.4465 142.096 57.0251 141.908 56.689C141.72 56.353 141.475 56.0967 141.167 55.9258C140.859 55.7549 140.517 55.6695 140.146 55.6695C139.775 55.6695 139.444 55.7549 139.131 55.9258C138.817 56.0967 138.566 56.353 138.384 56.689C138.195 57.0251 138.104 57.4465 138.104 57.9591C138.104 58.4717 138.195 58.8875 138.384 59.2292C138.572 59.5653 138.817 59.8216 139.125 59.9924C139.433 60.1633 139.775 60.2487 140.146 60.2487Z" fill="#26003C"/>
<path d="M144.908 61.5985V51.039H146.67V61.5985H144.908Z" fill="#26003C"/>
<path d="M150.395 61.7751C149.573 61.7751 148.917 61.496 148.433 60.9322C147.948 60.3683 147.703 59.5481 147.703 58.4603V54.3253H149.448V58.2837C149.448 58.9387 149.573 59.4342 149.83 59.7703C150.087 60.1063 150.452 60.2772 150.931 60.2772C151.467 60.2772 151.895 60.0892 152.203 59.7076C152.511 59.326 152.665 58.7849 152.665 58.0787V54.3253H154.427V61.5985H152.665V60.4993C152.448 60.898 152.151 61.2112 151.769 61.4391C151.387 61.6669 150.925 61.7751 150.389 61.7751H150.395Z" fill="#26003C"/>
<path d="M158.482 61.5986C158.014 61.5986 157.615 61.5416 157.29 61.4277C156.965 61.3138 156.72 61.1031 156.554 60.7898C156.389 60.4766 156.303 60.0209 156.303 59.4286V55.8062H155.054V54.3254H156.303V52.4174H158.066V54.3254H159.976V55.8062H158.066V59.1951C158.066 59.4571 158.094 59.6564 158.145 59.7817C158.197 59.907 158.294 59.9924 158.431 60.038C158.567 60.0836 158.767 60.1063 159.035 60.1063H159.902V61.6043H158.476L158.482 61.5986Z" fill="#26003C"/>
<path d="M160.524 53.078V51.2725H162.303V53.078H160.524ZM160.524 61.5986V54.3253H162.286V61.5986H160.524Z" fill="#26003C"/>
<path d="M167.014 61.7751C166.29 61.7751 165.634 61.6157 165.052 61.2967C164.47 60.9778 164.008 60.5335 163.666 59.9526C163.324 59.3773 163.153 58.7109 163.153 57.9591C163.153 57.2073 163.324 56.5295 163.666 55.96C164.008 55.3904 164.476 54.9405 165.063 54.6272C165.651 54.3083 166.301 54.1488 167.02 54.1488C167.738 54.1488 168.411 54.3083 168.987 54.6272C169.563 54.9462 170.025 55.3904 170.367 55.96C170.71 56.5295 170.881 57.2016 170.881 57.9591C170.881 58.7166 170.71 59.3773 170.367 59.9526C170.025 60.5278 169.563 60.9778 168.981 61.2967C168.4 61.6157 167.744 61.7751 167.02 61.7751H167.014ZM167.014 60.2487C167.385 60.2487 167.727 60.1633 168.035 59.9924C168.343 59.8216 168.588 59.5653 168.776 59.2292C168.964 58.8932 169.056 58.4717 169.056 57.9591C169.056 57.4465 168.964 57.0251 168.776 56.689C168.588 56.353 168.343 56.0967 168.035 55.9258C167.727 55.7549 167.385 55.6695 167.014 55.6695C166.643 55.6695 166.312 55.7549 165.999 55.9258C165.685 56.0967 165.434 56.353 165.252 56.689C165.063 57.0251 164.972 57.4465 164.972 57.9591C164.972 58.4717 165.063 58.8875 165.252 59.2292C165.44 59.5653 165.685 59.8216 165.993 59.9924C166.301 60.1633 166.643 60.2487 167.014 60.2487Z" fill="#26003C"/>
<path d="M171.787 61.5986V54.3254H173.55V55.4531C173.795 55.0544 174.126 54.7354 174.542 54.5019C174.959 54.2684 175.432 54.1488 175.974 54.1488C176.875 54.1488 177.576 54.4279 178.072 54.9917C178.574 55.5556 178.82 56.3758 178.82 57.4636V61.5986H177.057V57.6402C177.057 56.9852 176.92 56.4897 176.652 56.1536C176.384 55.8176 175.974 55.6467 175.426 55.6467C174.879 55.6467 174.44 55.8347 174.08 56.2163C173.721 56.5979 173.544 57.139 173.544 57.8452V61.5986H171.782H171.787Z" fill="#26003C"/>
<path d="M182.915 61.7751C181.974 61.7751 181.198 61.553 180.576 61.1145C179.96 60.6759 179.607 60.0665 179.521 59.2976H181.329C181.397 59.6393 181.58 59.9127 181.877 60.112C182.173 60.3114 182.538 60.4139 182.972 60.4139C183.405 60.4139 183.753 60.3285 183.992 60.1576C184.232 59.9867 184.352 59.776 184.352 59.5197C184.352 59.3147 184.272 59.1552 184.107 59.0413C183.941 58.9274 183.656 58.8419 183.245 58.785C183.086 58.7565 182.897 58.7223 182.664 58.6882C182.435 58.654 182.236 58.6198 182.07 58.5799C181.688 58.5116 181.335 58.392 180.998 58.2211C180.667 58.0503 180.399 57.8167 180.2 57.5263C180 57.2301 179.898 56.8713 179.898 56.4384C179.898 55.7948 180.143 55.2537 180.628 54.8095C181.112 54.3652 181.802 54.1488 182.704 54.1488C183.605 54.1488 184.323 54.3481 184.865 54.7411C185.407 55.1341 185.709 55.7151 185.789 56.4783H184.072C184.044 56.1536 183.901 55.9144 183.639 55.7606C183.377 55.6069 183.069 55.5271 182.709 55.5271C182.316 55.5271 182.013 55.6012 181.797 55.7549C181.58 55.9087 181.472 56.0967 181.472 56.3188C181.472 56.7175 181.808 56.9795 182.487 57.0934C182.584 57.1105 182.709 57.1333 182.863 57.1617C183.017 57.1845 183.171 57.213 183.325 57.2358C183.479 57.2586 183.616 57.2814 183.724 57.3041C183.987 57.3326 184.255 57.3896 184.523 57.4807C184.791 57.5661 185.042 57.6857 185.264 57.8395C185.487 57.9933 185.669 58.1869 185.8 58.4319C185.932 58.6768 186 58.9843 186 59.3545C186 59.833 185.88 60.2544 185.641 60.6132C185.401 60.9778 185.053 61.2568 184.591 61.4619C184.129 61.6669 183.57 61.7694 182.915 61.7694V61.7751Z" fill="#26003C"/>
</g>
<defs>
<clipPath id="clip0_621_1309">
<rect width="186" height="65" fill="white"/>
</clipPath>
</defs>
</svg>
